HIERARCHY
ROOT Hips
{
 OFFSET 0.000000 0.000000 0.000000
 CHANNELS 6 Xposition Yposition Zposition Yrotation Xrotation Zrotation
 JOINT Chest
 {
  OFFSET 0.000000 9.585900 0.002600
  CHANNELS 3 Yrotation Xrotation Zrotation
  JOINT Chest2
  {
   OFFSET 0.000000 9.601200 -0.005300
   CHANNELS 3 Yrotation Xrotation Zrotation
   JOINT Chest3
   {
    OFFSET 0.000000 9.561800 0.000000
    CHANNELS 3 Yrotation Xrotation Zrotation
    JOINT Chest4
    {
     OFFSET 0.000000 9.552100 0.000000
     CHANNELS 3 Yrotation Xrotation Zrotation
     JOINT Neck
     {
      OFFSET 0.000000 14.453000 0.000000
      CHANNELS 3 Yrotation Xrotation Zrotation
      JOINT Head
      {
       OFFSET 0.000000 8.936500 -0.011300
       CHANNELS 3 Yrotation Xrotation Zrotation
       End Site
       {
        OFFSET 0.000000 17.073600 -0.006000
       }
      }
     }
     JOINT RightCollar
     {
      OFFSET -2.921100 9.558500 0.000000
      CHANNELS 3 Yrotation Xrotation Zrotation
      JOINT RightShoulder
      {
       OFFSET -13.519700 0.000000 0.000000
       CHANNELS 3 Yrotation Xrotation Zrotation
       JOINT RightElbow
       {
        OFFSET 0.000000 -29.696600 0.000000
        CHANNELS 3 Yrotation Xrotation Zrotation
        JOINT RightWrist
        {
         OFFSET 0.000000 -24.004700 0.000000
         CHANNELS 3 Yrotation Xrotation Zrotation
         End Site
         {
          OFFSET 0.000000 -17.728500 0.000000
         }
        }
       }
      }
     }
     JOINT LeftCollar
     {
      OFFSET 2.921100 9.558500 0.000000
      CHANNELS 3 Yrotation Xrotation Zrotation
      JOINT LeftShoulder
      {
       OFFSET 13.519700 0.000000 0.000000
       CHANNELS 3 Yrotation Xrotation Zrotation
       JOINT LeftElbow
       {
        OFFSET 0.000000 -29.696600 0.000000
        CHANNELS 3 Yrotation Xrotation Zrotation
        JOINT LeftWrist
        {
         OFFSET 0.000000 -24.004700 0.000000
         CHANNELS 3 Yrotation Xrotation Zrotation
         End Site
         {
          OFFSET 0.000000 -17.728500 0.000000
         }
        }
       }
      }
     }
    }
   }
  }
 }
 JOINT RightHip
 {
  OFFSET -7.771700 -0.012900 -0.001300
  CHANNELS 3 Yrotation Xrotation Zrotation
  JOINT RightKnee
  {
   OFFSET 0.000000 -40.869800 0.001200
   CHANNELS 3 Yrotation Xrotation Zrotation
   JOINT RightAnkle
   {
    OFFSET 0.000000 -39.717900 0.002100
    CHANNELS 3 Yrotation Xrotation Zrotation
    JOINT RightToe
    {
     OFFSET 0.000000 -4.965400 11.033500
     CHANNELS 3 Yrotation Xrotation Zrotation
     End Site
     {
      OFFSET 0.000000 -1.423100 5.872300
     }
    }
   }
  }
 }
 JOINT LeftHip
 {
  OFFSET 7.771700 -0.012900 -0.001300
  CHANNELS 3 Yrotation Xrotation Zrotation
  JOINT LeftKnee
  {
   OFFSET 0.000000 -40.869800 0.001200
   CHANNELS 3 Yrotation Xrotation Zrotation
   JOINT LeftAnkle
   {
    OFFSET 0.000000 -39.717900 0.002100
    CHANNELS 3 Yrotation Xrotation Zrotation
    JOINT LeftToe
    {
     OFFSET 0.000000 -4.965400 11.033500
     CHANNELS 3 Yrotation Xrotation Zrotation
     End Site
     {
      OFFSET 0.000000 -1.423100 5.872300
     }
    }
   }
  }
 }
}
MOTION
Frames: 7
Frame Time: 0.008333
0.000000 85.388000 0.000000 0.000000 -5.767877 0.000000 0.000000 11.653817 0.000000 0.000000 -5.885947 0.000000 0.000000 -0.000000 0.000000 0.000000 -0.000000 0.000000 0.000000 12.528835 0.000000 0.000000 0.711642 0.000000 0.000000 -0.000000 0.000000 0.000000 0.000000 -90.000000 0.000000 -2.309062 0.000000 0.000000 2.309062 0.000000 0.000000 -0.000000 0.000000 0.000000 -0.000000 90.000000 0.000000 -2.309062 0.000000 0.000000 2.309062 0.000000 0.000000 8.520406 0.000000 0.000000 1.905762 0.000000 -0.000000 -4.658285 0.000000 0.000000 -0.000000 0.000000 0.000000 8.520406 0.000000 0.000000 1.905762 0.000000 -0.000000 -4.658285 0.000000 0.000000 -0.000000 0.000000
-61.668619 50.404178 -1.797791 161.428038 -8.406255 0.297474 2.754379 7.269308 0.637234 0.116151 0.341234 -0.013131 0.203118 0.596927 -0.022368 2.359604 6.948734 -0.130212 -0.198455 16.273425 1.000360 -0.721976 -5.565052 1.927822 3.064820 8.656351 0.688265 -10.791030 -16.344746 -6.655035 -58.041141 -53.240751 70.478490 -11.497041 -10.077166 -24.029356 -8.016704 4.519843 -1.477830 29.061178 -7.090152 0.867754 68.645211 -45.610425 -82.684052 16.666041 -7.141533 9.273127 -1.996522 -72.366100 -1.513966 -114.502037 79.251712 -112.523050 0.004449 -15.226884 -0.701578 -0.222244 0.870184 -0.137745 -6.348535 -75.551885 25.904248 117.310881 78.885161 114.108794 -15.964471 -22.395722 0.242217 -0.451899 -1.031091 -0.189106
-61.661017 50.409457 -1.794892 161.446654 -8.361524 0.323570 2.817746 7.305328 0.648441 0.119926 0.344565 -0.012668 0.209680 0.602610 -0.021546 2.421827 6.971339 -0.115262 -0.225816 16.096129 1.007193 -0.778315 -5.893692 1.952762 3.070488 8.648112 0.720317 -10.665774 -15.650841 -6.238360 -58.624363 -53.442163 70.668232 -11.443382 -10.123938 -23.948406 -8.011238 4.464951 -1.533137 29.050866 -6.949529 0.248083 68.887908 -45.988716 -82.841938 16.482826 -6.928438 8.866576 -1.998105 -72.411843 -1.549029 -114.533247 79.254845 -112.554416 0.015092 -15.223964 -0.709939 -0.229613 0.861646 -0.140630 -6.317164 -75.582893 25.848155 117.208253 78.889608 113.997127 -15.968292 -22.382869 0.237628 -0.420049 -1.030119 -0.192898
-61.654208 50.416043 -1.791801 161.460823 -8.306540 0.366195 2.894861 7.334345 0.653440 0.124124 0.348160 -0.012028 0.216937 0.608801 -0.020522 2.490016 6.995514 -0.097147 -0.255387 15.928407 1.002564 -0.834629 -6.204676 1.957086 3.028232 8.638360 0.740636 -10.620217 -14.970994 -5.771245 -59.337102 -53.836868 71.046028 -11.287840 -10.124584 -23.589602 -7.985159 4.421308 -1.588218 29.098428 -6.855714 -0.403240 69.115918 -46.456355 -83.033298 16.288355 -6.751158 8.440457 -1.980723 -72.466594 -1.609592 -114.558991 79.265077 -112.589296 0.041123 -15.231260 -0.725513 -0.252067 0.863511 -0.140837 -6.199895 -75.632164 25.709235 117.141709 78.892609 113.924060 -15.954093 -22.353885 0.237295 -0.490144 -1.049857 -0.209883
-61.639658 50.424329 -1.790090 161.516594 -8.268333 0.368532 2.888855 7.337563 0.669395 0.180806 0.393023 0.011872 0.224221 0.614786 -0.019373 2.558346 7.018238 -0.078009 -0.279449 15.774807 0.987216 -0.876626 -6.489730 1.939386 2.942356 8.635456 0.748490 -10.697604 -14.345131 -5.237836 -60.034309 -54.411806 71.510710 -11.048939 -10.086512 -23.015317 -7.942736 4.393280 -1.641762 29.198959 -6.800577 -1.061300 69.345602 -46.990676 -83.272812 16.087147 -6.610058 8.034665 -2.142461 -72.499595 -1.544139 -114.686237 79.271493 -112.680603 0.014307 -15.246924 -0.795273 -0.199228 0.848807 -0.120473 -6.251861 -75.661143 25.698944 117.035657 78.902597 113.822344 -15.929253 -22.331908 0.218906 -0.458885 -1.054669 -0.208923
-61.629212 50.433099 -1.786731 161.567391 -8.207974 0.393227 2.966871 7.378700 0.708472 0.104833 0.334513 -0.022282 0.285483 0.660467 0.004562 2.620047 7.036898 -0.061844 -0.290966 15.638556 0.963338 -0.891795 -6.742926 1.901063 2.821680 8.643534 0.743336 -10.905510 -13.783581 -4.629578 -60.626869 -55.163385 71.994086 -10.755400 -10.026200 -22.300395 -7.887013 4.380253 -1.690427 29.340095 -6.764954 -1.700525 69.598651 -47.571287 -83.573757 15.880527 -6.502391 7.677099 -2.205155 -72.554321 -1.566115 -114.744289 79.278920 -112.727743 0.018333 -15.258130 -0.807383 -0.186476 0.841816 -0.137586 -6.235073 -75.709234 25.614974 116.883261 78.909896 113.670967 -15.905110 -22.304576 0.197693 -0.444741 -1.064643 -0.207346
-61.617300 50.442185 -1.781915 161.628260 -8.138416 0.401692 3.034384 7.403028 0.760543 0.032912 0.282080 -0.055295 0.339269 0.698544 0.026955 2.671563 7.050271 -0.050448 -0.286301 15.522876 0.932999 -0.874036 -6.958190 1.844591 2.674678 8.663812 0.722178 -11.212093 -13.281468 -3.959380 -61.090271 -56.072547 72.455050 -10.436995 -9.956673 -21.508818 -7.823548 4.378343 -1.733278 29.501040 -6.726439 -2.297555 69.900202 -48.181777 -83.944641 15.668383 -6.425274 7.379139 -2.321557 -72.614501 -1.543002 -114.794283 79.289173 -112.764055 0.039914 -15.267520 -0.843005 -0.192247 0.834061 -0.133052 -6.313972 -75.758953 25.602399 116.637412 78.909823 113.433363 -15.873320 -22.285092 0.171251 -0.448194 -1.060412 -0.219682
